<?xml version="1.0" standalone="no"?>
<!DOCTYPE svg PUBLIC "-//W3C//DTD SVG 20010904//EN"
 "http://www.w3.org/TR/2001/REC-SVG-20010904/DTD/svg10.dtd">
<svg version="1.0" xmlns="http://www.w3.org/2000/svg"
 width="1600.000000pt" height="1600.000000pt" viewBox="0 0 1600.000000 1600.000000"
 preserveAspectRatio="xMidYMid meet">
<metadata>
Created by potrace 1.14, written by Peter Selinger 2001-2017
</metadata>
<g transform="translate(0.000000,1600.000000) scale(0.100000,-0.100000)"
fill="#000000" stroke="none">
<path d="M0 8000 l0 -8000 8000 0 8000 0 0 8000 0 8000 -8000 0 -8000 0 0
-8000z m2911 5675 c173 -258 315 -476 317 -483 2 -6 -32 -78 -76 -160 -44 -81
-109 -208 -145 -282 -36 -74 -95 -189 -131 -255 -37 -68 -123 -266 -200 -458
-75 -185 -150 -365 -167 -399 -18 -35 -42 -90 -54 -123 l-23 -60 47 -110 c27
-61 78 -170 115 -243 65 -130 133 -285 262 -602 103 -253 211 -510 216 -515 8
-8 257 112 464 222 104 55 241 125 304 155 172 81 383 198 585 323 99 62 203
125 230 140 79 45 297 190 328 219 15 14 31 26 34 26 5 0 71 -51 182 -141 31
-25 110 -85 176 -134 66 -48 125 -94 131 -102 6 -7 9 -25 7 -41 -2 -15 -5 -41
-7 -58 -2 -17 -6 -36 -10 -42 -3 -6 -11 -48 -17 -94 -5 -46 -25 -191 -44 -323
-43 -297 -57 -439 -90 -870 -14 -187 -30 -394 -35 -460 -9 -106 -18 -234 -60
-850 -6 -82 -17 -267 -25 -410 -8 -143 -17 -276 -20 -295 -29 -211 -36 -847
-11 -1055 9 -77 19 -210 23 -297 l6 -156 196 -119 c239 -146 518 -304 626
-353 168 -78 931 -374 1120 -435 169 -54 712 -245 850 -298 94 -36 269 -94
389 -127 120 -34 224 -64 230 -66 9 -4 277 255 331 320 6 7 91 95 190 196 99
102 249 257 335 345 85 88 234 241 330 340 97 99 317 326 490 505 173 179 389
402 480 495 91 94 242 249 335 345 196 201 428 441 703 723 155 159 192 203
192 225 0 15 -18 95 -39 179 -29 111 -120 366 -341 955 -478 1270 -490 1302
-490 1317 0 16 -36 116 -77 214 l-28 67 -350 159 c-450 204 -1078 488 -1130
511 -65 29 -685 310 -753 341 -35 16 -67 29 -72 29 -5 0 -11 4 -14 9 -12 19
117 367 312 844 8 20 19 37 24 37 21 0 227 -75 333 -120 60 -26 200 -89 310
-140 110 -51 232 -105 270 -120 39 -16 158 -66 265 -113 223 -97 356 -148 486
-187 50 -16 117 -42 150 -58 222 -112 624 -256 1414 -506 97 -31 183 -61 192
-68 15 -12 1485 -3527 1496 -3575 3 -17 -10 -38 -54 -85 -32 -35 -182 -198
-333 -363 -151 -165 -301 -327 -332 -360 -31 -33 -114 -123 -184 -200 -71 -77
-331 -360 -580 -630 -248 -269 -1100 -1196 -1894 -2060 -794 -863 -1458 -1585
-1476 -1604 l-33 -33 -53 20 c-30 11 -234 90 -454 175 -220 85 -530 205 -690
267 -159 61 -497 192 -750 290 -803 311 -1205 466 -1380 534 -93 36 -305 117
-470 181 -165 64 -415 161 -555 215 -140 54 -448 173 -685 265 -236 92 -460
178 -497 192 l-68 25 -1 172 c0 94 -2 182 -3 196 -2 14 -6 338 -10 720 -3 382
-8 790 -11 905 -3 116 -7 437 -10 715 -9 892 -15 1321 -21 1480 l-6 154 -30
27 c-16 15 -43 32 -61 38 -18 6 -250 38 -517 72 -267 33 -485 61 -486 62 -1 1
-68 178 -149 392 -81 215 -219 577 -305 805 -87 228 -243 640 -348 915 -104
275 -211 555 -237 623 -30 78 -45 131 -41 146 3 12 21 42 39 67 61 81 225 367
397 694 29 55 79 145 110 200 66 116 174 308 270 481 37 66 106 182 154 256
47 75 130 217 185 315 160 289 164 295 177 281 6 -7 153 -224 325 -483z"/>
</g>
</svg>
